<?xml version="1.0" standalone="no"?>
<!DOCTYPE svg PUBLIC "-//W3C//DTD SVG 20010904//EN"
 "http://www.w3.org/TR/2001/REC-SVG-20010904/DTD/svg10.dtd">
<svg version="1.0" xmlns="http://www.w3.org/2000/svg"
 width="228.000000pt" height="228.000000pt" viewBox="0 0 228.000000 228.000000"
 preserveAspectRatio="xMidYMid meet">
<metadata>
Created by potrace 1.14, written by Peter Selinger 2001-2017
</metadata>
<g transform="translate(0.000000,228.000000) scale(0.100000,-0.100000)"
fill="#000000" stroke="none">
<path d="M1388 1776 c-1 -2 -68 -6 -148 -10 -80 -3 -164 -9 -188 -12 l-43 -7
6 -76 c9 -115 14 -185 20 -306 3 -60 8 -132 10 -160 2 -27 7 -144 11 -260 4
-116 8 -230 9 -255 1 -25 3 -89 4 -142 l1 -97 43 -6 c23 -3 58 -8 77 -10 50
-7 348 -6 390 1 88 13 171 39 245 74 129 63 209 139 272 262 100 194 88 519
-27 697 -114 179 -314 283 -570 297 -47 3 -90 7 -97 9 -6 2 -13 2 -15 1z m330
-596 c75 -44 102 -102 98 -213 -6 -150 -65 -232 -195 -271 -44 -13 -53 -13
-57 -1 -3 8 -3 101 -1 207 3 106 6 219 6 251 l1 57 48 0 c34 0 61 -8 100 -30z"/>
<path d="M365 1688 c4 -35 8 -74 10 -88 3 -24 10 -90 21 -210 3 -30 7 -71 9
-90 2 -19 7 -82 10 -140 3 -58 8 -127 10 -155 3 -27 7 -114 11 -192 5 -131 4
-142 -13 -147 -24 -7 -90 0 -160 18 -31 8 -58 14 -59 13 -1 -1 4 -38 12 -82 7
-44 13 -97 13 -117 1 -44 13 -52 91 -63 227 -30 390 -1 541 96 l46 29 1 258
c1 261 4 354 27 810 l7 122 -292 0 -292 0 7 -62z"/>
</g>
</svg>
